<svg width="28" height="12" viewBox="0 0 28 12" fill="none" xmlns="http://www.w3.org/2000/svg">
<path d="M0.27625 10.272V8.672H2.42025V9.616L2.94825 10.144H6.26025L6.80425 9.6V7.744L6.27625 7.216H2.03625L0.30825 5.488V2.528L2.03625 0.799999H7.09225L8.82025 2.528V4.144H6.67625V3.184L6.14825 2.656H2.98025L2.45225 3.184V4.832L2.98025 5.36H7.22025L8.94825 7.088V10.24L7.18825 12H2.00425L0.27625 10.272ZM13.2073 0.799999H15.1913L19.2873 12H17.0793L16.1673 9.52H12.2313L11.3193 12H9.11125L13.2073 0.799999ZM15.6873 7.728L14.1993 3.472H14.1673L12.7273 7.728H15.6873ZM19.615 10.272L25.359 2.656V2.624H19.775V0.799999H27.967V2.528L22.223 10.144V10.176H27.967V12H19.615V10.272Z" fill="#111111"/>
</svg>
