<svg width="20" height="24" viewBox="0 0 20 24" fill="none" xmlns="http://www.w3.org/2000/svg">
<path d="M5 14H15M5 11H15M5 17H11M14 3V5.2C14 5.64183 13.6418 6 13.2 6H6.8C6.35817 6 6 5.64183 6 5.2V3M8 3C8 1.89543 8.89543 1 10 1C11.1046 1 12 1.89543 12 3M3.4 3H16.6C17.9255 3 19 4.07452 19 5.4V20.6C19 21.9255 17.9255 23 16.6 23H3.4C2.07452 23 1 21.9255 1 20.6V5.4C1 4.07452 2.07452 3 3.4 3Z" stroke="black" stroke-width="1.5" stroke-miterlimit="10" stroke-linecap="round" stroke-linejoin="round"/>
</svg>
