<svg width="264" height="51" viewBox="0 0 264 51" fill="none" xmlns="http://www.w3.org/2000/svg">
<path d="M170.294 16V7.204H173.042C174.83 7.204 176.114 7.852 176.114 9.676C176.114 11.44 174.83 12.28 173.042 12.28H171.41V16H170.294ZM171.41 11.38H172.886C174.254 11.38 175.01 10.816 175.01 9.676C175.01 8.524 174.254 8.116 172.886 8.116H171.41V11.38ZM175.13 16L172.826 11.98L173.69 11.404L176.378 16H175.13ZM178.913 16.168C177.821 16.168 177.005 15.484 177.005 14.308C177.005 12.892 178.229 12.184 181.001 11.872C181.001 11.032 180.737 10.228 179.669 10.228C178.901 10.228 178.217 10.588 177.713 10.936L177.281 10.168C177.881 9.784 178.793 9.328 179.837 9.328C181.433 9.328 182.105 10.384 182.105 12.004V16H181.205L181.109 15.232H181.061C180.449 15.748 179.717 16.168 178.913 16.168ZM179.213 15.28C179.849 15.28 180.377 14.98 181.001 14.416V12.604C178.805 12.856 178.073 13.396 178.073 14.236C178.073 14.98 178.577 15.28 179.213 15.28ZM183.854 16V9.484H184.946V16H183.854ZM184.406 8.14C183.974 8.14 183.674 7.864 183.674 7.408C183.674 6.988 183.974 6.712 184.406 6.712C184.826 6.712 185.138 6.988 185.138 7.408C185.138 7.864 184.826 8.14 184.406 8.14ZM189.395 16.168C187.667 16.168 186.347 14.908 186.347 12.76C186.347 10.576 187.811 9.328 189.479 9.328C190.331 9.328 190.931 9.676 191.387 10.096L190.835 10.816C190.451 10.468 190.043 10.24 189.539 10.24C188.339 10.24 187.475 11.248 187.475 12.76C187.475 14.248 188.303 15.256 189.503 15.256C190.091 15.256 190.631 14.968 191.039 14.608L191.507 15.34C190.931 15.856 190.175 16.168 189.395 16.168ZM192.636 16V6.46H193.728V9.064L193.692 10.408C194.292 9.82 194.952 9.328 195.852 9.328C197.22 9.328 197.844 10.216 197.844 11.872V16H196.74V12.016C196.74 10.792 196.368 10.276 195.504 10.276C194.844 10.276 194.376 10.624 193.728 11.272V16H192.636ZM201.501 16.168C200.133 16.168 199.509 15.28 199.509 13.612V9.484H200.601V13.48C200.601 14.692 200.973 15.208 201.837 15.208C202.497 15.208 202.977 14.884 203.589 14.116V9.484H204.681V16H203.781L203.685 14.98H203.661C203.049 15.688 202.401 16.168 201.501 16.168ZM214.182 9.076H216.918V9.892H214.182V9.076ZM216.354 6.1H217.35V14.044H216.354V6.1ZM210.426 15.88H217.65V16.696H210.426V15.88ZM210.426 13.348H211.422V16.3H210.426V13.348ZM211.194 7.444H212.01V8.32C212.01 10.288 210.786 11.992 208.974 12.664L208.458 11.872C210.078 11.296 211.194 9.856 211.194 8.32V7.444ZM211.386 7.444H212.19V8.308C212.19 9.712 213.246 11.08 214.818 11.632L214.314 12.412C212.55 11.776 211.386 10.144 211.386 8.308V7.444ZM208.77 6.976H214.566V7.78H208.77V6.976ZM219.597 11.464H220.377C222.513 11.464 223.569 11.428 224.865 11.2L224.973 12.004C223.629 12.244 222.549 12.28 220.377 12.28H219.597V11.464ZM219.573 6.736H224.253V9.82H220.581V11.956H219.597V9.04H223.269V7.552H219.573V6.736ZM227.073 6.1H228.069V12.76H227.073V6.1ZM224.973 7.696H227.301V8.512H224.973V7.696ZM224.973 9.94H227.301V10.756H224.973V9.94ZM220.809 13.348H228.069V16.96H227.073V14.164H220.809V13.348ZM234.504 18.364C233.388 16.564 232.728 14.644 232.728 12.28C232.728 9.928 233.388 7.984 234.504 6.184L235.176 6.508C234.144 8.212 233.64 10.24 233.64 12.28C233.64 14.32 234.144 16.348 235.176 18.052L234.504 18.364ZM243.386 6.088H244.382V11.608H243.386V6.088ZM244.106 8.512H245.99V9.34H244.106V8.512ZM240.374 6.616H241.454C241.454 9.34 239.498 11.128 236.354 11.872L235.982 11.044C238.802 10.42 240.374 8.968 240.374 7.144V6.616ZM236.45 6.616H240.962V7.432H236.45V6.616ZM237.494 12.1H244.382V14.788H238.502V16.48H237.518V14.02H243.41V12.892H237.494V12.1ZM237.518 16.036H244.778V16.828H237.518V16.036ZM250.897 6.604H257.881V7.408H250.897V6.604ZM249.733 11.176H259.525V11.98H249.733V11.176ZM253.753 8.992H254.737V11.296H253.753V8.992ZM257.305 6.604H258.277V7.372C258.277 8.188 258.277 9.16 258.001 10.42L257.029 10.312C257.305 9.064 257.305 8.176 257.305 7.372V6.604ZM254.089 12.832H254.941V13.312C254.941 15.244 253.033 16.528 250.813 16.9L250.429 16.108C252.421 15.832 254.089 14.74 254.089 13.312V12.832ZM254.233 12.832H255.085V13.312C255.085 14.74 256.765 15.832 258.745 16.108L258.373 16.9C256.129 16.528 254.233 15.244 254.233 13.312V12.832ZM261.04 18.364L260.356 18.052C261.388 16.348 261.892 14.32 261.892 12.28C261.892 10.24 261.388 8.212 260.356 6.508L261.04 6.184C262.144 7.984 262.804 9.928 262.804 12.28C262.804 14.644 262.144 16.564 261.04 18.364Z" fill="#5F5F5F"/>
<path d="M1.21735 16V7.204H3.72535C5.69335 7.204 7.02535 7.864 7.02535 9.796C7.02535 11.644 5.70535 12.508 3.77335 12.508H2.33335V16H1.21735ZM2.33335 11.608H3.64135C5.17735 11.608 5.92135 11.044 5.92135 9.796C5.92135 8.512 5.14135 8.116 3.58135 8.116H2.33335V11.608ZM8.3951 16V9.484H9.4871V16H8.3951ZM8.9471 8.14C8.5151 8.14 8.2151 7.864 8.2151 7.408C8.2151 6.988 8.5151 6.712 8.9471 6.712C9.3671 6.712 9.6791 6.988 9.6791 7.408C9.6791 7.864 9.3671 8.14 8.9471 8.14ZM11.3798 16V6.46H12.4598V12.928H12.4958L15.2678 9.484H16.4918L14.3198 12.112L16.7678 16H15.5798L13.6718 12.856L12.4598 14.284V16H11.3798ZM19.0168 16.168C17.9248 16.168 17.1088 15.484 17.1088 14.308C17.1088 12.892 18.3328 12.184 21.1048 11.872C21.1048 11.032 20.8408 10.228 19.7728 10.228C19.0048 10.228 18.3208 10.588 17.8168 10.936L17.3848 10.168C17.9848 9.784 18.8968 9.328 19.9408 9.328C21.5368 9.328 22.2088 10.384 22.2088 12.004V16H21.3088L21.2128 15.232H21.1648C20.5528 15.748 19.8208 16.168 19.0168 16.168ZM19.3168 15.28C19.9528 15.28 20.4808 14.98 21.1048 14.416V12.604C18.9088 12.856 18.1768 13.396 18.1768 14.236C18.1768 14.98 18.6808 15.28 19.3168 15.28ZM26.5145 16.168C24.7865 16.168 23.4665 14.908 23.4665 12.76C23.4665 10.576 24.9305 9.328 26.5985 9.328C27.4505 9.328 28.0505 9.676 28.5065 10.096L27.9545 10.816C27.5705 10.468 27.1625 10.24 26.6585 10.24C25.4585 10.24 24.5945 11.248 24.5945 12.76C24.5945 14.248 25.4225 15.256 26.6225 15.256C27.2105 15.256 27.7505 14.968 28.1585 14.608L28.6265 15.34C28.0505 15.856 27.2945 16.168 26.5145 16.168ZM29.7557 16V6.46H30.8477V9.064L30.8117 10.408C31.4117 9.82 32.0717 9.328 32.9717 9.328C34.3397 9.328 34.9637 10.216 34.9637 11.872V16H33.8597V12.016C33.8597 10.792 33.4877 10.276 32.6237 10.276C31.9637 10.276 31.4957 10.624 30.8477 11.272V16H29.7557ZM38.6208 16.168C37.2528 16.168 36.6288 15.28 36.6288 13.612V9.484H37.7208V13.48C37.7208 14.692 38.0928 15.208 38.9568 15.208C39.6168 15.208 40.0968 14.884 40.7088 14.116V9.484H41.8008V16H40.9008L40.8048 14.98H40.7808C40.1688 15.688 39.5208 16.168 38.6208 16.168ZM51.3014 9.076H54.0374V9.892H51.3014V9.076ZM53.4734 6.1H54.4694V14.044H53.4734V6.1ZM47.5454 15.88H54.7694V16.696H47.5454V15.88ZM47.5454 13.348H48.5414V16.3H47.5454V13.348ZM48.3134 7.444H49.1294V8.32C49.1294 10.288 47.9054 11.992 46.0934 12.664L45.5774 11.872C47.1974 11.296 48.3134 9.856 48.3134 8.32V7.444ZM48.5054 7.444H49.3094V8.308C49.3094 9.712 50.3654 11.08 51.9374 11.632L51.4334 12.412C49.6694 11.776 48.5054 10.144 48.5054 8.308V7.444ZM45.8894 6.976H51.6854V7.78H45.8894V6.976ZM56.7165 11.464H57.4965C59.6325 11.464 60.6885 11.428 61.9845 11.2L62.0925 12.004C60.7485 12.244 59.6685 12.28 57.4965 12.28H56.7165V11.464ZM56.6925 6.736H61.3725V9.82H57.7005V11.956H56.7165V9.04H60.3885V7.552H56.6925V6.736ZM64.1925 6.1H65.1885V12.76H64.1925V6.1ZM62.0925 7.696H64.4205V8.512H62.0925V7.696ZM62.0925 9.94H64.4205V10.756H62.0925V9.94ZM57.9285 13.348H65.1885V16.96H64.1925V14.164H57.9285V13.348ZM71.6232 18.364C70.5072 16.564 69.8472 14.644 69.8472 12.28C69.8472 9.928 70.5072 7.984 71.6232 6.184L72.2952 6.508C71.2632 8.212 70.7592 10.24 70.7592 12.28C70.7592 14.32 71.2632 16.348 72.2952 18.052L71.6232 18.364ZM81.0099 6.1H82.0059V14.368H81.0099V6.1ZM79.1739 8.968H81.4299V9.784H79.1739V8.968ZM79.1739 11.26H81.4299V12.064H79.1739V11.26ZM73.1019 7.408H79.1739V8.212H73.1019V7.408ZM76.1739 8.812C77.6139 8.812 78.6219 9.64 78.6219 10.888C78.6219 12.124 77.6139 12.964 76.1739 12.964C74.7219 12.964 73.7139 12.124 73.7139 10.888C73.7139 9.64 74.7219 8.812 76.1739 8.812ZM76.1739 9.592C75.2739 9.592 74.6619 10.12 74.6619 10.888C74.6619 11.656 75.2739 12.172 76.1739 12.172C77.0739 12.172 77.6859 11.656 77.6859 10.888C77.6859 10.12 77.0739 9.592 76.1739 9.592ZM75.6819 6.076H76.6779V7.924H75.6819V6.076ZM75.0339 15.88H82.2699V16.696H75.0339V15.88ZM75.0339 13.66H76.0299V16.276H75.0339V13.66ZM92.1009 6.088H93.0489V16.936H92.1009V6.088ZM90.3849 10.456H92.4729V11.296H90.3849V10.456ZM89.7369 6.316H90.6729V16.396H89.7369V6.316ZM86.0409 7.768H86.8209V9.016C86.8209 11.62 85.9689 13.708 84.3009 14.704L83.6889 13.936C85.2489 13.072 86.0409 11.224 86.0409 9.016V7.768ZM86.2209 7.768H87.0009V9.016C87.0009 11.008 87.8049 12.772 89.3289 13.552L88.7409 14.32C87.0849 13.408 86.2209 11.404 86.2209 9.016V7.768ZM83.9409 7.36H88.9809V8.188H83.9409V7.36ZM95.116 18.364L94.432 18.052C95.464 16.348 95.968 14.32 95.968 12.28C95.968 10.24 95.464 8.212 94.432 6.508L95.116 6.184C96.22 7.984 96.88 9.928 96.88 12.28C96.88 14.644 96.22 16.564 95.116 18.364Z" fill="#5F5F5F"/>
<path d="M129 32L137 24L129 16" stroke="black" stroke-width="1.5" stroke-linecap="round" stroke-linejoin="round"/>
<path d="M20.7576 29.584H29.9096V30.944H20.7576V29.584ZM19.1416 35.92H32.3576V37.28H19.1416V35.92ZM22.3416 36.832H24.0216V43.328H22.3416V36.832ZM28.9496 29.584H30.5976V30.608C30.5976 31.952 30.5976 33.744 30.1016 36.32L28.4376 36.192C28.9496 33.696 28.9496 31.92 28.9496 30.608V29.584ZM27.3656 36.832H29.0456V43.328H27.3656V36.832ZM41.3964 32.384H44.4524V33.76H41.3964V32.384ZM43.9724 28.704H45.6524V37.408H43.9724V28.704ZM40.7724 37.792C43.8284 37.792 45.7004 38.832 45.7004 40.56C45.7004 42.32 43.8284 43.328 40.7724 43.328C37.7164 43.328 35.8444 42.32 35.8444 40.56C35.8444 38.832 37.7164 37.792 40.7724 37.792ZM40.7724 39.088C38.7084 39.088 37.5084 39.6 37.5084 40.56C37.5084 41.52 38.7084 42.032 40.7724 42.032C42.8524 42.032 44.0364 41.52 44.0364 40.56C44.0364 39.6 42.8524 39.088 40.7724 39.088ZM37.1084 30.176H38.4684V31.248C38.4684 33.984 36.9804 36.4 34.3884 37.328L33.5244 36C35.8124 35.2 37.1084 33.248 37.1084 31.248V30.176ZM37.4444 30.176H38.7884V31.232C38.7884 33.056 40.0364 34.864 42.2284 35.616L41.3964 36.944C38.8684 36.064 37.4444 33.76 37.4444 31.232V30.176ZM34.0044 29.696H41.8444V31.04H34.0044V29.696ZM54.7969 35.488H56.4769V37.456H54.7969V35.488ZM60.9729 28.72H62.6529V38.592H60.9729V28.72ZM62.0129 33.024H64.6529V34.416H62.0129V33.024ZM51.2769 38.224L51.0849 36.896C53.6929 36.896 57.2129 36.88 60.2049 36.48L60.3329 37.648C57.2449 38.192 53.8369 38.208 51.2769 38.224ZM52.9089 39.248H62.6529V43.328H60.9729V40.56H52.9089V39.248ZM51.4529 29.92H59.8049V31.152H51.4529V29.92ZM55.6289 31.616C57.7249 31.616 59.1009 32.448 59.1009 33.776C59.1009 35.12 57.7249 35.952 55.6289 35.952C53.5169 35.952 52.1569 35.12 52.1569 33.776C52.1569 32.448 53.5169 31.616 55.6289 31.616ZM55.6289 32.736C54.4609 32.736 53.7409 33.104 53.7409 33.776C53.7409 34.432 54.4609 34.832 55.6289 34.832C56.7969 34.832 57.5169 34.432 57.5169 33.776C57.5169 33.104 56.7969 32.736 55.6289 32.736ZM54.7969 28.592H56.4769V30.496H54.7969V28.592ZM75.9796 28.72H77.6596V39.312H75.9796V28.72ZM68.1076 41.68H78.0756V43.04H68.1076V41.68ZM68.1076 38.24H69.7876V42.192H68.1076V38.24ZM69.7716 29.696C71.9796 29.696 73.6436 31.2 73.6436 33.344C73.6436 35.456 71.9796 36.992 69.7716 36.992C67.5636 36.992 65.8836 35.456 65.8836 33.344C65.8836 31.2 67.5636 29.696 69.7716 29.696ZM69.7716 31.136C68.4916 31.136 67.5156 32 67.5156 33.344C67.5156 34.656 68.4916 35.52 69.7716 35.52C71.0516 35.52 72.0116 34.656 72.0116 33.344C72.0116 32 71.0516 31.136 69.7716 31.136Z" fill="#111111"/>
<line x1="18" y1="50.5" x2="80" y2="50.5" stroke="#111111"/>
<path d="M188.758 29.584H197.91V30.944H188.758V29.584ZM187.142 35.92H200.358V37.28H187.142V35.92ZM190.342 36.832H192.022V43.328H190.342V36.832ZM196.95 29.584H198.598V30.608C198.598 31.952 198.598 33.744 198.102 36.32L196.438 36.192C196.95 33.696 196.95 31.92 196.95 30.608V29.584ZM195.366 36.832H197.046V43.328H195.366V36.832ZM209.396 32.384H212.452V33.76H209.396V32.384ZM211.972 28.704H213.652V37.408H211.972V28.704ZM208.772 37.792C211.828 37.792 213.7 38.832 213.7 40.56C213.7 42.32 211.828 43.328 208.772 43.328C205.716 43.328 203.844 42.32 203.844 40.56C203.844 38.832 205.716 37.792 208.772 37.792ZM208.772 39.088C206.708 39.088 205.508 39.6 205.508 40.56C205.508 41.52 206.708 42.032 208.772 42.032C210.852 42.032 212.036 41.52 212.036 40.56C212.036 39.6 210.852 39.088 208.772 39.088ZM205.108 30.176H206.468V31.248C206.468 33.984 204.98 36.4 202.388 37.328L201.524 36C203.812 35.2 205.108 33.248 205.108 31.248V30.176ZM205.444 30.176H206.788V31.232C206.788 33.056 208.036 34.864 210.228 35.616L209.396 36.944C206.868 36.064 205.444 33.76 205.444 31.232V30.176ZM202.004 29.696H209.844V31.04H202.004V29.696ZM222.797 35.488H224.477V37.456H222.797V35.488ZM228.973 28.72H230.653V38.592H228.973V28.72ZM230.013 33.024H232.653V34.416H230.013V33.024ZM219.277 38.224L219.085 36.896C221.693 36.896 225.213 36.88 228.205 36.48L228.333 37.648C225.245 38.192 221.837 38.208 219.277 38.224ZM220.909 39.248H230.653V43.328H228.973V40.56H220.909V39.248ZM219.453 29.92H227.805V31.152H219.453V29.92ZM223.629 31.616C225.725 31.616 227.101 32.448 227.101 33.776C227.101 35.12 225.725 35.952 223.629 35.952C221.517 35.952 220.157 35.12 220.157 33.776C220.157 32.448 221.517 31.616 223.629 31.616ZM223.629 32.736C222.461 32.736 221.741 33.104 221.741 33.776C221.741 34.432 222.461 34.832 223.629 34.832C224.797 34.832 225.517 34.432 225.517 33.776C225.517 33.104 224.797 32.736 223.629 32.736ZM222.797 28.592H224.477V30.496H222.797V28.592ZM243.98 28.72H245.66V39.312H243.98V28.72ZM236.108 41.68H246.076V43.04H236.108V41.68ZM236.108 38.24H237.788V42.192H236.108V38.24ZM237.772 29.696C239.98 29.696 241.644 31.2 241.644 33.344C241.644 35.456 239.98 36.992 237.772 36.992C235.564 36.992 233.884 35.456 233.884 33.344C233.884 31.2 235.564 29.696 237.772 29.696ZM237.772 31.136C236.492 31.136 235.516 32 235.516 33.344C235.516 34.656 236.492 35.52 237.772 35.52C239.052 35.52 240.012 34.656 240.012 33.344C240.012 32 239.052 31.136 237.772 31.136Z" fill="#111111"/>
<line x1="186" y1="50.5" x2="248" y2="50.5" stroke="#111111"/>
</svg>
