<svg width="325" height="114" viewBox="0 0 325 114" fill="none" xmlns="http://www.w3.org/2000/svg">
<rect width="325" height="114" rx="5" fill="#FFD74B"/>
<path d="M217.2 37V28.204H219.948C221.736 28.204 223.02 28.852 223.02 30.676C223.02 32.44 221.736 33.28 219.948 33.28H218.316V37H217.2ZM218.316 32.38H219.792C221.16 32.38 221.916 31.816 221.916 30.676C221.916 29.524 221.16 29.116 219.792 29.116H218.316V32.38ZM222.036 37L219.732 32.98L220.596 32.404L223.284 37H222.036ZM225.819 37.168C224.727 37.168 223.911 36.484 223.911 35.308C223.911 33.892 225.135 33.184 227.907 32.872C227.907 32.032 227.643 31.228 226.575 31.228C225.807 31.228 225.123 31.588 224.619 31.936L224.187 31.168C224.787 30.784 225.699 30.328 226.743 30.328C228.339 30.328 229.011 31.384 229.011 33.004V37H228.111L228.015 36.232H227.967C227.355 36.748 226.623 37.168 225.819 37.168ZM226.119 36.28C226.755 36.28 227.283 35.98 227.907 35.416V33.604C225.711 33.856 224.979 34.396 224.979 35.236C224.979 35.98 225.483 36.28 226.119 36.28ZM230.761 37V30.484H231.853V37H230.761ZM231.313 29.14C230.881 29.14 230.581 28.864 230.581 28.408C230.581 27.988 230.881 27.712 231.313 27.712C231.733 27.712 232.045 27.988 232.045 28.408C232.045 28.864 231.733 29.14 231.313 29.14ZM236.302 37.168C234.574 37.168 233.254 35.908 233.254 33.76C233.254 31.576 234.718 30.328 236.386 30.328C237.238 30.328 237.838 30.676 238.294 31.096L237.742 31.816C237.358 31.468 236.95 31.24 236.446 31.24C235.246 31.24 234.382 32.248 234.382 33.76C234.382 35.248 235.21 36.256 236.41 36.256C236.998 36.256 237.538 35.968 237.946 35.608L238.414 36.34C237.838 36.856 237.082 37.168 236.302 37.168ZM239.543 37V27.46H240.635V30.064L240.599 31.408C241.199 30.82 241.859 30.328 242.759 30.328C244.127 30.328 244.751 31.216 244.751 32.872V37H243.647V33.016C243.647 31.792 243.275 31.276 242.411 31.276C241.751 31.276 241.283 31.624 240.635 32.272V37H239.543ZM248.408 37.168C247.04 37.168 246.416 36.28 246.416 34.612V30.484H247.508V34.48C247.508 35.692 247.88 36.208 248.744 36.208C249.404 36.208 249.884 35.884 250.496 35.116V30.484H251.588V37H250.688L250.592 35.98H250.568C249.956 36.688 249.308 37.168 248.408 37.168ZM261.088 30.076H263.824V30.892H261.088V30.076ZM263.26 27.1H264.256V35.044H263.26V27.1ZM257.332 36.88H264.556V37.696H257.332V36.88ZM257.332 34.348H258.328V37.3H257.332V34.348ZM258.1 28.444H258.916V29.32C258.916 31.288 257.692 32.992 255.88 33.664L255.364 32.872C256.984 32.296 258.1 30.856 258.1 29.32V28.444ZM258.292 28.444H259.096V29.308C259.096 30.712 260.152 32.08 261.724 32.632L261.22 33.412C259.456 32.776 258.292 31.144 258.292 29.308V28.444ZM255.676 27.976H261.472V28.78H255.676V27.976ZM266.504 32.464H267.284C269.42 32.464 270.476 32.428 271.772 32.2L271.88 33.004C270.536 33.244 269.456 33.28 267.284 33.28H266.504V32.464ZM266.48 27.736H271.16V30.82H267.488V32.956H266.504V30.04H270.176V28.552H266.48V27.736ZM273.98 27.1H274.976V33.76H273.98V27.1ZM271.88 28.696H274.208V29.512H271.88V28.696ZM271.88 30.94H274.208V31.756H271.88V30.94ZM267.716 34.348H274.976V37.96H273.98V35.164H267.716V34.348Z" fill="#5F5F5F"/>
<path d="M47.2 37V28.204H49.708C51.676 28.204 53.008 28.864 53.008 30.796C53.008 32.644 51.688 33.508 49.756 33.508H48.316V37H47.2ZM48.316 32.608H49.624C51.16 32.608 51.904 32.044 51.904 30.796C51.904 29.512 51.124 29.116 49.564 29.116H48.316V32.608ZM54.3777 37V30.484H55.4697V37H54.3777ZM54.9297 29.14C54.4977 29.14 54.1977 28.864 54.1977 28.408C54.1977 27.988 54.4977 27.712 54.9297 27.712C55.3497 27.712 55.6618 27.988 55.6618 28.408C55.6618 28.864 55.3497 29.14 54.9297 29.14ZM57.3624 37V27.46H58.4424V33.928H58.4784L61.2504 30.484H62.4744L60.3024 33.112L62.7504 37H61.5624L59.6544 33.856L58.4424 35.284V37H57.3624ZM64.9995 37.168C63.9075 37.168 63.0915 36.484 63.0915 35.308C63.0915 33.892 64.3155 33.184 67.0875 32.872C67.0875 32.032 66.8235 31.228 65.7555 31.228C64.9875 31.228 64.3035 31.588 63.7995 31.936L63.3675 31.168C63.9675 30.784 64.8795 30.328 65.9235 30.328C67.5195 30.328 68.1915 31.384 68.1915 33.004V37H67.2915L67.1955 36.232H67.1475C66.5355 36.748 65.8035 37.168 64.9995 37.168ZM65.2995 36.28C65.9355 36.28 66.4635 35.98 67.0875 35.416V33.604C64.8915 33.856 64.1595 34.396 64.1595 35.236C64.1595 35.98 64.6635 36.28 65.2995 36.28ZM72.4972 37.168C70.7692 37.168 69.4492 35.908 69.4492 33.76C69.4492 31.576 70.9132 30.328 72.5812 30.328C73.4332 30.328 74.0332 30.676 74.4892 31.096L73.9372 31.816C73.5532 31.468 73.1452 31.24 72.6412 31.24C71.4412 31.24 70.5772 32.248 70.5772 33.76C70.5772 35.248 71.4052 36.256 72.6052 36.256C73.1932 36.256 73.7332 35.968 74.1412 35.608L74.6092 36.34C74.0332 36.856 73.2772 37.168 72.4972 37.168ZM75.7384 37V27.46H76.8304V30.064L76.7944 31.408C77.3944 30.82 78.0544 30.328 78.9544 30.328C80.3224 30.328 80.9464 31.216 80.9464 32.872V37H79.8424V33.016C79.8424 31.792 79.4704 31.276 78.6064 31.276C77.9464 31.276 77.4784 31.624 76.8304 32.272V37H75.7384ZM84.6034 37.168C83.2354 37.168 82.6114 36.28 82.6114 34.612V30.484H83.7034V34.48C83.7034 35.692 84.0754 36.208 84.9394 36.208C85.5994 36.208 86.0794 35.884 86.6914 35.116V30.484H87.7834V37H86.8834L86.7874 35.98H86.7634C86.1514 36.688 85.5034 37.168 84.6034 37.168ZM97.2841 30.076H100.02V30.892H97.2841V30.076ZM99.4561 27.1H100.452V35.044H99.4561V27.1ZM93.5281 36.88H100.752V37.696H93.5281V36.88ZM93.5281 34.348H94.5241V37.3H93.5281V34.348ZM94.2961 28.444H95.1121V29.32C95.1121 31.288 93.8881 32.992 92.0761 33.664L91.5601 32.872C93.1801 32.296 94.2961 30.856 94.2961 29.32V28.444ZM94.4881 28.444H95.2921V29.308C95.2921 30.712 96.3481 32.08 97.9201 32.632L97.4161 33.412C95.6521 32.776 94.4881 31.144 94.4881 29.308V28.444ZM91.8721 27.976H97.6681V28.78H91.8721V27.976ZM102.699 32.464H103.479C105.615 32.464 106.671 32.428 107.967 32.2L108.075 33.004C106.731 33.244 105.651 33.28 103.479 33.28H102.699V32.464ZM102.675 27.736H107.355V30.82H103.683V32.956H102.699V30.04H106.371V28.552H102.675V27.736ZM110.175 27.1H111.171V33.76H110.175V27.1ZM108.075 28.696H110.403V29.512H108.075V28.696ZM108.075 30.94H110.403V31.756H108.075V30.94ZM103.911 34.348H111.171V37.96H110.175V35.164H103.911V34.348Z" fill="#5F5F5F"/>
<path d="M26.424 68.272L24.54 69.256V68.62L26.424 67.6H27.12V76H26.424V68.272ZM28.4153 67.6H29.1113L30.5153 75.028H30.5393L32.6873 67.6H33.3593L35.4473 75.028H35.4713L36.8513 67.6H37.5473L35.9033 76H35.1353L33.0353 68.584H33.0113L30.8393 76H30.0713L28.4153 67.6Z" fill="#111111"/>
<path d="M48.94 60.4L44.91 62.48V60.192L49.278 57.8H51.436V76H48.94V60.4ZM55.6975 76H55.3075L54.4235 75.116V73.816L55.3075 72.932H56.7115L57.5955 73.816V76L56.2175 79.302H54.8395L55.6975 76ZM61.6301 60.4L57.6001 62.48V60.192L61.9681 57.8H64.1261V76H61.6301V60.4ZM67.5816 73.27V60.53L70.3116 57.8H78.0076L80.7376 60.53V73.27L78.0076 76H70.3116L67.5816 73.27ZM76.8636 73.816L78.2416 72.438V61.362L76.8636 59.984H71.4556L70.0776 61.362V72.438L71.4556 73.816H76.8636ZM83.7909 73.27V60.53L86.5209 57.8H94.2169L96.9469 60.53V73.27L94.2169 76H86.5209L83.7909 73.27ZM93.0729 73.816L94.4509 72.438V61.362L93.0729 59.984H87.6649L86.2869 61.362V72.438L87.6649 73.816H93.0729ZM108.128 76L106.724 67.654H104.826V65.73H106.412L105.06 57.436H107.998L109.272 65.73H111.066L112.496 57.436H115.798L117.202 65.73H119.022L120.27 57.436H123.208L121.856 65.73H123.468V67.654H121.544L120.14 76H116.5L114.94 67.654H113.328L111.794 76H108.128ZM110.104 72.178L110.728 67.654H109.558L110.104 72.178ZM118.19 72.178L118.736 67.654H117.54L118.19 72.178ZM113.562 65.73H114.706L114.134 61.466L113.562 65.73Z" fill="#111111"/>
<path d="M193.424 68.272L191.54 69.256V68.62L193.424 67.6H194.12V76H193.424V68.272ZM195.415 67.6H196.111L197.515 75.028H197.539L199.687 67.6H200.359L202.447 75.028H202.471L203.851 67.6H204.547L202.903 76H202.135L200.035 68.584H200.011L197.839 76H197.071L195.415 67.6Z" fill="#111111"/>
<path d="M215.94 60.4L211.91 62.48V60.192L216.278 57.8H218.436V76H215.94V60.4ZM222.697 76H222.307L221.423 75.116V73.816L222.307 72.932H223.711L224.595 73.816V76L223.217 79.302H221.839L222.697 76ZM226.434 73.478V71.164H228.93V72.672L230.074 73.816H235.326L236.47 72.672V69.058L235.352 67.94H230.152V65.756H235.352L236.47 64.638V61.128L235.326 59.984H230.23L229.086 61.128V62.636H226.59V60.322L229.112 57.8H236.444L238.966 60.322V65.366L237.458 66.848L238.966 68.356V73.478L236.444 76H228.956L226.434 73.478ZM241.894 73.27V60.53L244.624 57.8H252.32L255.05 60.53V73.27L252.32 76H244.624L241.894 73.27ZM251.176 73.816L252.554 72.438V61.362L251.176 59.984H245.768L244.39 61.362V72.438L245.768 73.816H251.176ZM258.103 73.27V60.53L260.833 57.8H268.529L271.259 60.53V73.27L268.529 76H260.833L258.103 73.27ZM267.385 73.816L268.763 72.438V61.362L267.385 59.984H261.977L260.599 61.362V72.438L261.977 73.816H267.385ZM282.441 76L281.037 67.654H279.139V65.73H280.725L279.373 57.436H282.311L283.585 65.73H285.379L286.809 57.436H290.111L291.515 65.73H293.335L294.583 57.436H297.521L296.169 65.73H297.781V67.654H295.857L294.453 76H290.813L289.253 67.654H287.641L286.107 76H282.441ZM284.417 72.178L285.041 67.654H283.871L284.417 72.178ZM292.503 72.178L293.049 67.654H291.853L292.503 72.178ZM287.875 65.73H289.019L288.447 61.466L287.875 65.73Z" fill="#111111"/>
<path d="M159 65L167 57L159 49" stroke="black" stroke-width="1.5" stroke-linecap="round" stroke-linejoin="round"/>
</svg>
