<svg width="22" height="22" viewBox="0 0 22 22" fill="none" xmlns="http://www.w3.org/2000/svg">
<path d="M19.4 21H19.38M19.38 21H2.6C1.72 21 1 20.28 1 19.4V15.75C1 15.5 1 15.37 1.12 15.13C1.5 14.25 2.62 13.51 4.37 12.88M19.38 21C20.26 21 20.98 20.28 20.98 19.4V15.75C20.98 15.51 20.98 15.25 20.86 15.13C20.49 14.26 19.36 13.5 17.61 12.88M11 12.5C8.25 12.5 6 10.25 6 7.5V6C6 3.25 8.25 1 11 1C13.75 1 16 3.25 16 6V7.5C16 10.25 13.75 12.5 11 12.5Z" stroke="black" stroke-width="1.5" stroke-linecap="round" stroke-linejoin="round"/>
</svg>
