<svg width="325" height="167" viewBox="0 0 325 167" fill="none" xmlns="http://www.w3.org/2000/svg">
<rect width="325" height="167" rx="5" fill="#FCFCFC"/>
<path d="M62.792 90.096H67.184V97.296H62.792V90.096ZM65.696 91.344H64.28V96.048H65.696V91.344ZM70.508 88.956H72.032V100.068H70.508V88.956ZM66.38 92.988H68.876V94.272H66.38V92.988ZM68.24 89.124H69.74V99.564H68.24V89.124ZM76.3311 89.28C78.0231 89.28 79.2951 90.336 79.2951 91.824C79.2951 93.3 78.0231 94.356 76.3311 94.356C74.6391 94.356 73.3671 93.3 73.3671 91.824C73.3671 90.336 74.6391 89.28 76.3311 89.28ZM76.3311 90.576C75.5151 90.576 74.9031 91.032 74.9031 91.824C74.9031 92.616 75.5151 93.072 76.3311 93.072C77.1471 93.072 77.7471 92.616 77.7471 91.824C77.7471 91.032 77.1471 90.576 76.3311 90.576ZM80.8311 88.956H82.4391V94.512H80.8311V88.956ZM75.0231 94.968H82.4391V98.016H76.6071V99.36H75.0471V96.864H80.8551V96.204H75.0231V94.968ZM75.0471 98.712H82.7151V99.948H75.0471V98.712ZM86.3169 94.44H96.3729V95.712H86.3169V94.44ZM90.6729 95.244H92.2809V97.584H90.6729V95.244ZM87.5529 89.424H95.1009V93.552H87.5529V89.424ZM93.5289 90.672H89.1129V92.304H93.5289V90.672ZM87.4809 98.604H95.2689V99.876H87.4809V98.604ZM87.4809 96.648H89.0649V99.024H87.4809V96.648ZM100.612 89.688C102.364 89.688 103.672 90.828 103.672 92.424C103.672 94.032 102.364 95.172 100.612 95.172C98.8719 95.172 97.5399 94.032 97.5399 92.424C97.5399 90.828 98.8719 89.688 100.612 89.688ZM100.612 91.056C99.7599 91.056 99.1119 91.56 99.1119 92.424C99.1119 93.3 99.7599 93.804 100.612 93.804C101.464 93.804 102.112 93.3 102.112 92.424C102.112 91.56 101.464 91.056 100.612 91.056ZM104.716 88.944H106.312V100.092H104.716V88.944ZM97.2759 97.836L97.0839 96.552C99.0399 96.552 101.764 96.528 104.104 96.18L104.224 97.332C101.812 97.812 99.1959 97.836 97.2759 97.836Z" fill="#343434"/>
<path d="M232.432 91.824H235.024V93.108H232.432V91.824ZM234.184 88.968H235.78V97.068H234.184V88.968ZM228.448 98.604H236.032V99.876H228.448V98.604ZM228.448 96.384H230.044V99.36H228.448V96.384ZM229.048 90.42H230.344V91.116C230.344 93.204 229.36 95.136 227.224 95.844L226.42 94.572C228.256 93.972 229.048 92.52 229.048 91.116V90.42ZM229.384 90.42H230.668V91.116C230.668 92.412 231.424 93.792 233.176 94.38L232.396 95.628C230.332 94.944 229.384 93.096 229.384 91.116V90.42ZM226.852 89.712H232.828V90.972H226.852V89.712ZM239.767 95.532H241.363V97.332H239.767V95.532ZM244.435 88.956H246.043V100.068H244.435V88.956ZM245.479 93.468H247.435V94.788H245.479V93.468ZM237.271 98.22L237.079 96.936C238.999 96.936 241.639 96.924 243.883 96.612L244.003 97.764C241.663 98.22 239.143 98.22 237.271 98.22ZM237.283 90.18H243.823V91.428H237.283V90.18ZM240.571 91.872C242.155 91.872 243.283 92.712 243.283 93.948C243.283 95.196 242.155 96.036 240.571 96.036C238.975 96.036 237.859 95.196 237.859 93.948C237.859 92.712 238.975 91.872 240.571 91.872ZM240.571 93.072C239.839 93.072 239.371 93.384 239.371 93.948C239.371 94.524 239.839 94.836 240.571 94.836C241.291 94.836 241.771 94.524 241.771 93.948C241.771 93.384 241.291 93.072 240.571 93.072ZM239.767 89.016H241.363V91.116H239.767V89.016ZM250.317 94.44H260.373V95.712H250.317V94.44ZM254.673 95.244H256.281V97.584H254.673V95.244ZM251.553 89.424H259.101V93.552H251.553V89.424ZM257.529 90.672H253.113V92.304H257.529V90.672ZM251.481 98.604H259.269V99.876H251.481V98.604ZM251.481 96.648H253.065V99.024H251.481V96.648ZM264.612 89.688C266.364 89.688 267.672 90.828 267.672 92.424C267.672 94.032 266.364 95.172 264.612 95.172C262.872 95.172 261.54 94.032 261.54 92.424C261.54 90.828 262.872 89.688 264.612 89.688ZM264.612 91.056C263.76 91.056 263.112 91.56 263.112 92.424C263.112 93.3 263.76 93.804 264.612 93.804C265.464 93.804 266.112 93.3 266.112 92.424C266.112 91.56 265.464 91.056 264.612 91.056ZM268.716 88.944H270.312V100.092H268.716V88.944ZM261.276 97.836L261.084 96.552C263.04 96.552 265.764 96.528 268.104 96.18L268.224 97.332C265.812 97.812 263.196 97.836 261.276 97.836Z" fill="#343434"/>
<path d="M22.2491 122.14C21.4691 122.14 20.7491 121.81 20.2391 121.39L20.6491 120.84C21.1191 121.22 21.5991 121.49 22.2691 121.49C23.0191 121.49 23.3891 121.09 23.3891 120.6C23.3891 120.02 22.7391 119.76 22.1291 119.53C21.3691 119.25 20.5391 118.9 20.5391 117.97C20.5391 117.14 21.2091 116.47 22.3691 116.47C23.0191 116.47 23.6091 116.73 24.0191 117.07L23.6191 117.59C23.2491 117.32 22.8691 117.11 22.3791 117.11C21.6591 117.11 21.3191 117.5 21.3191 117.94C21.3191 118.47 21.8891 118.68 22.4991 118.91C23.2991 119.21 24.1691 119.52 24.1691 120.55C24.1691 121.42 23.4991 122.14 22.2491 122.14ZM26.398 122.14C25.508 122.14 24.818 121.6 24.818 120.61C24.818 119.43 25.848 118.85 28.168 118.59C28.178 117.86 27.958 117.15 27.028 117.15C26.378 117.15 25.798 117.46 25.378 117.74L25.058 117.17C25.528 116.86 26.278 116.47 27.148 116.47C28.468 116.47 28.988 117.36 28.988 118.65V122H28.318L28.248 121.35H28.208C27.688 121.78 27.078 122.14 26.398 122.14ZM26.608 121.47C27.158 121.47 27.618 121.21 28.168 120.72V119.15C26.258 119.36 25.618 119.83 25.618 120.56C25.618 121.22 26.058 121.47 26.608 121.47ZM29.8142 122V121.57L32.7442 117.27H30.1342V116.6H33.7742V117.04L30.8442 121.34H33.8742V122H29.8142ZM34.2819 122V121.52C36.4719 119.33 37.6619 118.04 37.6619 116.85C37.6619 116.03 37.2219 115.42 36.2719 115.42C35.6719 115.42 35.1319 115.8 34.7219 116.29L34.2419 115.83C34.8219 115.19 35.4519 114.76 36.3719 114.76C37.6719 114.76 38.4719 115.58 38.4719 116.82C38.4719 118.18 37.2319 119.52 35.4719 121.37C35.8619 121.33 36.3019 121.3 36.6719 121.3H38.8219V122H34.2819ZM41.6202 122.14C40.4802 122.14 39.7802 121.65 39.3102 121.13L39.7302 120.6C40.1502 121.04 40.7102 121.45 41.5702 121.45C42.4702 121.45 43.1002 120.92 43.1002 120.09C43.1002 119.21 42.4902 118.62 40.7802 118.62V117.98C42.3202 117.98 42.8402 117.37 42.8402 116.6C42.8402 115.88 42.3502 115.42 41.5702 115.42C40.9602 115.42 40.4302 115.74 40.0302 116.16L39.5802 115.64C40.1102 115.14 40.7502 114.76 41.5902 114.76C42.7902 114.76 43.6802 115.41 43.6802 116.54C43.6802 117.42 43.1402 117.97 42.3702 118.25V118.29C43.2302 118.49 43.9302 119.13 43.9302 120.11C43.9302 121.37 42.9102 122.14 41.6202 122.14ZM46.9285 122.14C45.5185 122.14 44.6785 120.8 44.6785 118.43C44.6785 116.05 45.5185 114.76 46.9285 114.76C48.3285 114.76 49.1585 116.05 49.1585 118.43C49.1585 120.8 48.3285 122.14 46.9285 122.14ZM46.9285 121.47C47.7885 121.47 48.3685 120.53 48.3685 118.43C48.3685 116.32 47.7885 115.42 46.9285 115.42C46.0585 115.42 45.4685 116.32 45.4685 118.43C45.4685 120.53 46.0585 121.47 46.9285 121.47ZM52.1168 122.14C50.7668 122.14 49.7968 121.31 49.7968 120.19C49.7968 119.25 50.4868 118.6 51.1568 118.24V118.2C50.6268 117.84 50.1568 117.31 50.1568 116.56C50.1568 115.48 51.0168 114.76 52.1368 114.76C53.3668 114.76 54.1168 115.55 54.1168 116.64C54.1168 117.4 53.5668 118.05 53.1368 118.38V118.42C53.7668 118.8 54.3768 119.3 54.3768 120.25C54.3768 121.31 53.4668 122.14 52.1168 122.14ZM52.6168 118.17C53.1268 117.71 53.4168 117.23 53.4168 116.68C53.4168 115.96 52.9368 115.38 52.1168 115.38C51.4168 115.38 50.9068 115.85 50.9068 116.56C50.9068 117.45 51.7368 117.82 52.6168 118.17ZM52.1268 121.52C53.0068 121.52 53.5868 120.98 53.5868 120.23C53.5868 119.26 52.6468 118.93 51.5968 118.51C50.9768 118.89 50.5368 119.43 50.5368 120.12C50.5368 120.92 51.2168 121.52 52.1268 121.52ZM57.265 122.14C55.855 122.14 55.015 120.8 55.015 118.43C55.015 116.05 55.855 114.76 57.265 114.76C58.665 114.76 59.495 116.05 59.495 118.43C59.495 120.8 58.665 122.14 57.265 122.14ZM57.265 121.47C58.125 121.47 58.705 120.53 58.705 118.43C58.705 116.32 58.125 115.42 57.265 115.42C56.395 115.42 55.805 116.32 55.805 118.43C55.805 120.53 56.395 121.47 57.265 121.47ZM60.5733 122V121.32H62.2133V115.93H60.9133V115.4C61.5533 115.29 62.0133 115.12 62.3933 114.89H63.0233V121.32H64.5133V122H60.5733ZM69.2916 123.71C67.1216 123.71 65.4116 122.31 65.4116 119.74C65.4116 116.77 67.5616 114.84 70.0116 114.84C72.2316 114.84 73.6316 116.31 73.6316 118.49C73.6316 120.43 72.4316 121.44 71.4416 121.44C70.8416 121.44 70.3816 121.16 70.3116 120.59H70.2916C69.9216 121.02 69.4216 121.36 68.9316 121.36C68.1916 121.36 67.6016 120.81 67.6016 119.8C67.6016 118.63 68.4316 117.23 69.7316 117.23C70.1116 117.23 70.4216 117.4 70.6316 117.77H70.6516L70.7716 117.32H71.3216L70.8916 119.51C70.6616 120.43 70.8816 120.87 71.5116 120.87C72.2216 120.87 73.0416 120 73.0416 118.53C73.0416 116.69 71.9516 115.4 69.9416 115.4C67.9516 115.4 66.0216 117.1 66.0216 119.71C66.0216 121.89 67.4316 123.14 69.3516 123.14C70.0416 123.14 70.6716 122.93 71.1716 122.64L71.4116 123.14C70.7516 123.52 70.0616 123.71 69.2916 123.71ZM69.0816 120.79C69.4016 120.79 69.7516 120.58 70.1516 120.1L70.4816 118.3C70.2516 117.94 70.0516 117.81 69.7316 117.81C68.8316 117.81 68.2616 118.88 68.2616 119.75C68.2616 120.5 68.6216 120.79 69.0816 120.79ZM76.0473 122.14C75.1573 122.14 74.4673 121.6 74.4673 120.61C74.4673 119.43 75.4973 118.85 77.8173 118.59C77.8273 117.86 77.6073 117.15 76.6773 117.15C76.0273 117.15 75.4473 117.46 75.0273 117.74L74.7073 117.17C75.1773 116.86 75.9273 116.47 76.7973 116.47C78.1173 116.47 78.6373 117.36 78.6373 118.65V122H77.9673L77.8973 121.35H77.8573C77.3373 121.78 76.7273 122.14 76.0473 122.14ZM76.2573 121.47C76.8073 121.47 77.2673 121.21 77.8173 120.72V119.15C75.9073 119.36 75.2673 119.83 75.2673 120.56C75.2673 121.22 75.7073 121.47 76.2573 121.47ZM81.8935 122.14C80.5435 122.14 79.6635 121.12 79.6635 119.31C79.6635 117.56 80.7735 116.47 82.0235 116.47C82.6635 116.47 83.0835 116.7 83.5635 117.1L83.5235 116.16V114.05H84.3435V122H83.6735L83.5935 121.35H83.5735C83.1435 121.78 82.5635 122.14 81.8935 122.14ZM82.0635 121.45C82.5935 121.45 83.0535 121.19 83.5235 120.67V117.75C83.0435 117.32 82.6135 117.16 82.1435 117.16C81.2335 117.16 80.5135 118.04 80.5135 119.3C80.5135 120.63 81.0735 121.45 82.0635 121.45ZM87.1358 122.14C86.2458 122.14 85.5558 121.6 85.5558 120.61C85.5558 119.43 86.5858 118.85 88.9058 118.59C88.9158 117.86 88.6958 117.15 87.7658 117.15C87.1158 117.15 86.5358 117.46 86.1158 117.74L85.7958 117.17C86.2658 116.86 87.0158 116.47 87.8858 116.47C89.2058 116.47 89.7258 117.36 89.7258 118.65V122H89.0558L88.9858 121.35H88.9458C88.4258 121.78 87.8158 122.14 87.1358 122.14ZM87.3458 121.47C87.8958 121.47 88.3558 121.21 88.9058 120.72V119.15C86.9958 119.36 86.3558 119.83 86.3558 120.56C86.3558 121.22 86.7958 121.47 87.3458 121.47ZM91.162 124.32V116.6H91.832L91.912 117.24H91.932C92.432 116.83 93.042 116.47 93.682 116.47C95.082 116.47 95.832 117.55 95.832 119.22C95.832 121.07 94.722 122.14 93.472 122.14C92.982 122.14 92.462 121.91 91.952 121.5L91.972 122.46V124.32H91.162ZM93.362 121.45C94.292 121.45 94.982 120.6 94.982 119.23C94.982 118 94.562 117.16 93.492 117.16C93.012 117.16 92.532 117.43 91.972 117.93V120.86C92.492 121.29 92.992 121.45 93.362 121.45ZM98.439 122.14C97.319 122.14 96.949 121.43 96.949 120.38V117.27H96.139V116.66L96.989 116.6L97.079 115.07H97.759V116.6H99.249V117.27H97.759V120.41C97.759 121.07 97.959 121.47 98.619 121.47C98.809 121.47 99.069 121.4 99.239 121.32L99.409 121.93C99.099 122.04 98.749 122.14 98.439 122.14ZM102.164 122.14C100.734 122.14 99.5942 121.09 99.5942 119.31C99.5942 117.55 100.774 116.47 102.004 116.47C103.364 116.47 104.144 117.44 104.144 119C104.144 119.17 104.124 119.35 104.104 119.49H100.404C100.454 120.68 101.184 121.48 102.254 121.48C102.794 121.48 103.224 121.31 103.624 121.04L103.924 121.59C103.464 121.89 102.904 122.14 102.164 122.14ZM100.394 118.89H103.414C103.414 117.74 102.894 117.13 102.014 117.13C101.224 117.13 100.514 117.77 100.394 118.89ZM105.182 122V116.6H105.852L105.932 117.59H105.952C106.332 116.91 106.872 116.47 107.482 116.47C107.722 116.47 107.882 116.5 108.052 116.58L107.902 117.29C107.722 117.23 107.602 117.2 107.382 117.2C106.922 117.2 106.372 117.54 105.992 118.49V122H105.182ZM107.983 122V121.57L110.913 117.27H108.303V116.6H111.943V117.04L109.013 121.34H112.043V122H107.983ZM114.884 122.14C113.564 122.14 112.394 121.1 112.394 119.31C112.394 117.51 113.564 116.47 114.884 116.47C116.204 116.47 117.364 117.51 117.364 119.31C117.364 121.1 116.204 122.14 114.884 122.14ZM114.884 121.45C115.854 121.45 116.524 120.59 116.524 119.31C116.524 118.02 115.854 117.15 114.884 117.15C113.904 117.15 113.244 118.02 113.244 119.31C113.244 120.59 113.904 121.45 114.884 121.45ZM118.51 122V116.6H119.18L119.26 117.4H119.28C119.8 116.88 120.36 116.47 121.1 116.47C122.23 116.47 122.75 117.19 122.75 118.57V122H121.94V118.68C121.94 117.64 121.62 117.18 120.86 117.18C120.29 117.18 119.89 117.47 119.32 118.05V122H118.51ZM126.394 122.14C124.964 122.14 123.824 121.09 123.824 119.31C123.824 117.55 125.004 116.47 126.234 116.47C127.594 116.47 128.374 117.44 128.374 119C128.374 119.17 128.354 119.35 128.334 119.49H124.634C124.684 120.68 125.414 121.48 126.484 121.48C127.024 121.48 127.454 121.31 127.854 121.04L128.154 121.59C127.694 121.89 127.134 122.14 126.394 122.14ZM124.624 118.89H127.644C127.644 117.74 127.124 117.13 126.244 117.13C125.454 117.13 124.744 117.77 124.624 118.89ZM129.813 122.14C129.483 122.14 129.203 121.87 129.203 121.49C129.203 121.09 129.483 120.83 129.813 120.83C130.153 120.83 130.433 121.09 130.433 121.49C130.433 121.87 130.153 122.14 129.813 122.14ZM133.722 122.14C132.302 122.14 131.212 121.1 131.212 119.31C131.212 117.51 132.412 116.47 133.782 116.47C134.492 116.47 134.992 116.77 135.362 117.11L134.942 117.65C134.622 117.36 134.262 117.15 133.822 117.15C132.802 117.15 132.062 118.02 132.062 119.31C132.062 120.59 132.762 121.45 133.802 121.45C134.312 121.45 134.762 121.21 135.112 120.9L135.472 121.45C134.992 121.87 134.382 122.14 133.722 122.14ZM138.196 122.14C136.876 122.14 135.706 121.1 135.706 119.31C135.706 117.51 136.876 116.47 138.196 116.47C139.516 116.47 140.676 117.51 140.676 119.31C140.676 121.1 139.516 122.14 138.196 122.14ZM138.196 121.45C139.166 121.45 139.836 120.59 139.836 119.31C139.836 118.02 139.166 117.15 138.196 117.15C137.216 117.15 136.556 118.02 136.556 119.31C136.556 120.59 137.216 121.45 138.196 121.45ZM141.822 122V116.6H142.492L142.572 117.4H142.592C143.072 116.88 143.642 116.47 144.282 116.47C145.122 116.47 145.562 116.87 145.772 117.52C146.352 116.89 146.922 116.47 147.572 116.47C148.672 116.47 149.202 117.19 149.202 118.57V122H148.392V118.68C148.392 117.64 148.052 117.18 147.332 117.18C146.902 117.18 146.442 117.47 145.912 118.05V122H145.112V118.68C145.112 117.64 144.772 117.18 144.052 117.18C143.622 117.18 143.152 117.47 142.632 118.05V122H141.822ZM59.0358 130.22H59.6458V131.16C59.6458 132.89 58.6358 134.29 57.1758 134.87L56.7858 134.28C58.1158 133.78 59.0358 132.57 59.0358 131.16V130.22ZM59.1658 130.22H59.7658V131.21C59.7658 132.45 60.7158 133.59 61.9858 134.04L61.5958 134.62C60.1858 134.09 59.1658 132.77 59.1658 131.21V130.22ZM63.0358 129.76H63.7758V135.25H63.0358V129.76ZM63.5758 132.13H65.1258V132.75H63.5758V132.13ZM60.9158 135.5C62.7558 135.5 63.8658 136.09 63.8658 137.12C63.8658 138.15 62.7558 138.74 60.9158 138.74C59.0858 138.74 57.9758 138.15 57.9758 137.12C57.9758 136.09 59.0858 135.5 60.9158 135.5ZM60.9158 136.09C59.5558 136.09 58.7058 136.47 58.7058 137.12C58.7058 137.77 59.5558 138.15 60.9158 138.15C62.2858 138.15 63.1358 137.77 63.1358 137.12C63.1358 136.47 62.2858 136.09 60.9158 136.09ZM68.095 130.55H68.705V132.22C68.705 134.24 67.535 136.14 66.105 136.87L65.645 136.26C66.945 135.64 68.095 133.92 68.095 132.22V130.55ZM68.215 130.55H68.825V132.22C68.825 133.86 69.965 135.52 71.255 136.12L70.805 136.71C69.405 136 68.215 134.18 68.215 132.22V130.55ZM72.295 129.75H73.035V138.77H72.295V129.75ZM76.4608 134.39H84.6308V135H76.4608V134.39ZM80.2308 134.77H80.9608V136.87H80.2308V134.77ZM77.5208 130.19H83.5608V133.32H77.5208V130.19ZM82.8308 130.78H78.2508V132.72H82.8308V130.78ZM77.5108 137.94H83.7208V138.56H77.5108V137.94ZM77.5108 135.98H78.2508V138.16H77.5108V135.98ZM88.28 130.42C89.68 130.42 90.67 131.28 90.67 132.52C90.67 133.77 89.68 134.63 88.28 134.63C86.87 134.63 85.87 133.77 85.87 132.52C85.87 131.28 86.87 130.42 88.28 130.42ZM88.28 131.07C87.3 131.07 86.59 131.66 86.59 132.52C86.59 133.38 87.3 133.99 88.28 133.99C89.24 133.99 89.95 133.38 89.95 132.52C89.95 131.66 89.24 131.07 88.28 131.07ZM91.91 129.75H92.65V138.77H91.91V129.75ZM85.51 136.77L85.4 136.14C87.05 136.14 89.34 136.14 91.31 135.83L91.37 136.38C89.34 136.76 87.13 136.77 85.51 136.77ZM102.286 129.75H103.036V138.76H102.286V129.75ZM102.836 133.45H104.506V134.07H102.836V133.45ZM100.006 130.73H100.726C100.726 133.26 99.5258 135.58 96.6258 137.03L96.2158 136.45C98.7258 135.19 100.006 133.22 100.006 130.84V130.73ZM96.6158 130.73H100.386V131.35H96.6158V130.73ZM106.135 132.31H112.225V132.92H106.135V132.31ZM106.135 129.94H106.875V132.57H106.135V129.94ZM105.015 134.01H113.155V134.62H105.015V134.01ZM109.075 135.46C110.995 135.46 112.155 136.05 112.155 137.1C112.155 138.13 110.995 138.73 109.075 138.73C107.155 138.73 106.005 138.13 106.005 137.1C106.005 136.05 107.155 135.46 109.075 135.46ZM109.075 136.05C107.635 136.05 106.745 136.43 106.745 137.1C106.745 137.75 107.635 138.14 109.075 138.14C110.525 138.14 111.405 137.75 111.405 137.1C111.405 136.43 110.525 136.05 109.075 136.05Z" fill="#5F5F5F"/>
<path d="M225.225 122.14C223.845 122.14 222.975 120.88 222.975 118.32C222.975 115.78 223.845 114.55 225.225 114.55C226.585 114.55 227.455 115.78 227.455 118.32C227.455 120.88 226.585 122.14 225.225 122.14ZM225.225 121.47C226.085 121.47 226.665 120.49 226.665 118.32C226.665 116.17 226.085 115.21 225.225 115.21C224.355 115.21 223.765 116.17 223.765 118.32C223.765 120.49 224.355 121.47 225.225 121.47ZM228.083 122V121.52C230.433 119.48 231.463 118 231.463 116.72C231.463 115.87 231.023 115.22 230.073 115.22C229.473 115.22 228.933 115.59 228.523 116.09L228.043 115.62C228.623 114.99 229.253 114.55 230.173 114.55C231.473 114.55 232.273 115.4 232.273 116.69C232.273 118.18 231.113 119.68 229.323 121.37C229.713 121.33 230.143 121.3 230.523 121.3H232.623V122H228.083ZM233.262 119.54V118.9H235.802V119.54H233.262ZM238.529 122.14C237.389 122.14 236.689 121.65 236.219 121.13L236.639 120.6C237.059 121.04 237.619 121.45 238.479 121.45C239.379 121.45 240.009 120.9 240.009 120.03C240.009 119.12 239.399 118.52 237.689 118.52V117.87C239.229 117.87 239.749 117.24 239.749 116.42C239.749 115.7 239.259 115.22 238.479 115.22C237.869 115.22 237.339 115.53 236.939 115.95L236.489 115.42C237.019 114.93 237.659 114.55 238.499 114.55C239.699 114.55 240.589 115.22 240.589 116.37C240.589 117.28 240.049 117.87 239.279 118.14V118.19C240.139 118.39 240.839 119.04 240.839 120.06C240.839 121.35 239.819 122.14 238.529 122.14ZM244.488 122V116.93C244.488 116.58 244.518 115.99 244.538 115.63H244.498C244.318 115.98 244.118 116.34 243.918 116.69L242.148 119.31H246.258V119.96H241.278V119.44L244.378 114.68H245.258V122H244.488ZM248.846 122.14C247.696 122.14 247.016 121.65 246.526 121.17L246.946 120.63C247.356 121.05 247.896 121.45 248.776 121.45C249.656 121.45 250.376 120.76 250.376 119.66C250.376 118.58 249.756 117.93 248.816 117.93C248.316 117.93 247.996 118.09 247.576 118.37L247.116 118.08L247.356 114.68H250.846V115.39H248.066L247.876 117.6C248.206 117.41 248.556 117.3 249.006 117.3C250.226 117.3 251.206 118.02 251.206 119.63C251.206 121.23 250.046 122.14 248.846 122.14ZM251.874 119.54V118.9H254.414V119.54H251.874ZM257.512 122.14C256.112 122.14 255.092 120.91 255.092 118.53C255.092 115.63 256.372 114.55 257.782 114.55C258.512 114.55 259.052 114.86 259.442 115.29L258.982 115.79C258.692 115.45 258.252 115.23 257.812 115.23C256.752 115.23 255.862 116.07 255.862 118.53C255.862 120.4 256.432 121.49 257.512 121.49C258.242 121.49 258.802 120.78 258.802 119.77C258.802 118.76 258.362 118.09 257.432 118.09C256.952 118.09 256.342 118.37 255.832 119.12L255.812 118.45C256.272 117.84 256.942 117.48 257.552 117.48C258.792 117.48 259.582 118.24 259.582 119.77C259.582 121.17 258.632 122.14 257.512 122.14ZM261.7 122C261.82 119.19 262.34 117.39 263.78 115.39H260.18V114.68H264.71V115.18C262.99 117.4 262.66 119.14 262.55 122H261.7ZM267.638 122.14C266.288 122.14 265.318 121.31 265.318 120.19C265.318 119.2 266.008 118.51 266.678 118.15V118.1C266.148 117.74 265.678 117.19 265.678 116.42C265.678 115.32 266.538 114.58 267.658 114.58C268.888 114.58 269.638 115.39 269.638 116.5C269.638 117.28 269.088 117.95 268.658 118.28V118.33C269.298 118.7 269.898 119.25 269.898 120.25C269.898 121.31 268.988 122.14 267.638 122.14ZM268.138 118.07C268.658 117.62 268.938 117.11 268.938 116.54C268.938 115.8 268.458 115.19 267.638 115.19C266.938 115.19 266.428 115.69 266.428 116.42C266.428 117.33 267.258 117.73 268.138 118.07ZM267.648 121.52C268.528 121.52 269.108 120.98 269.108 120.23C269.108 119.21 268.168 118.83 267.118 118.41C266.488 118.8 266.058 119.39 266.058 120.12C266.058 120.92 266.738 121.52 267.648 121.52ZM272.337 122.14C271.567 122.14 271.027 121.83 270.617 121.4L271.077 120.89C271.397 121.25 271.847 121.45 272.327 121.45C273.327 121.45 274.197 120.58 274.197 118C274.197 116.21 273.627 115.2 272.537 115.2C271.817 115.2 271.257 115.89 271.257 116.92C271.257 117.92 271.697 118.61 272.617 118.61C273.117 118.61 273.707 118.3 274.217 117.56L274.247 118.24C273.787 118.83 273.137 119.22 272.487 119.22C271.257 119.22 270.477 118.42 270.477 116.92C270.477 115.51 271.427 114.55 272.547 114.55C273.957 114.55 274.967 115.71 274.967 118C274.967 121.01 273.697 122.14 272.337 122.14ZM218.021 131.39H219.981V132H218.021V131.39ZM218.021 132.99H219.981V133.6H218.021V132.99ZM213.221 130.45H217.951V131.06H213.221V130.45ZM213.061 134.75L212.971 134.12C214.451 134.12 216.561 134.1 218.261 133.89L218.301 134.45C216.561 134.73 214.521 134.75 213.061 134.75ZM214.141 130.92H214.861V134.32H214.141V130.92ZM216.311 130.92H217.031V134.32H216.311V130.92ZM219.581 129.76H220.321V135.32H219.581V129.76ZM217.381 135.52C219.241 135.52 220.361 136.1 220.361 137.12C220.361 138.15 219.241 138.74 217.381 138.74C215.521 138.74 214.391 138.15 214.391 137.12C214.391 136.1 215.521 135.52 217.381 135.52ZM217.381 136.1C215.981 136.1 215.121 136.49 215.121 137.12C215.121 137.77 215.981 138.16 217.381 138.16C218.781 138.16 219.631 137.77 219.631 137.12C219.631 136.49 218.781 136.1 217.381 136.1ZM224.351 130.1C225.691 130.1 226.661 130.91 226.661 132.09C226.661 133.26 225.691 134.07 224.351 134.07C223.011 134.07 222.031 133.26 222.031 132.09C222.031 130.91 223.011 130.1 224.351 130.1ZM224.351 130.71C223.441 130.71 222.761 131.29 222.761 132.09C222.761 132.89 223.441 133.46 224.351 133.46C225.261 133.46 225.941 132.89 225.941 132.09C225.941 131.29 225.261 130.71 224.351 130.71ZM228.441 129.76H229.181V134.39H228.441V129.76ZM223.391 134.84H229.181V136.98H224.141V138.38H223.421V136.42H228.451V135.44H223.391V134.84ZM223.421 138.04H229.501V138.64H223.421V138.04ZM232.986 138V137.32H234.626V131.72H233.326V131.19C233.966 131.08 234.426 130.91 234.806 130.68H235.436V137.32H236.926V138H232.986ZM240.015 138.14C238.635 138.14 237.765 136.88 237.765 134.32C237.765 131.78 238.635 130.55 240.015 130.55C241.375 130.55 242.245 131.78 242.245 134.32C242.245 136.88 241.375 138.14 240.015 138.14ZM240.015 137.47C240.875 137.47 241.455 136.49 241.455 134.32C241.455 132.17 240.875 131.21 240.015 131.21C239.145 131.21 238.555 132.17 238.555 134.32C238.555 136.49 239.145 137.47 240.015 137.47ZM243.773 134.06C243.443 134.06 243.163 133.8 243.163 133.41C243.163 133.02 243.443 132.75 243.773 132.75C244.113 132.75 244.393 133.02 244.393 133.41C244.393 133.8 244.113 134.06 243.773 134.06ZM243.773 138.14C243.443 138.14 243.163 137.87 243.163 137.49C243.163 137.09 243.443 136.83 243.773 136.83C244.113 136.83 244.393 137.09 244.393 137.49C244.393 137.87 244.113 138.14 243.773 138.14ZM247.549 138.14C246.169 138.14 245.299 136.88 245.299 134.32C245.299 131.78 246.169 130.55 247.549 130.55C248.909 130.55 249.779 131.78 249.779 134.32C249.779 136.88 248.909 138.14 247.549 138.14ZM247.549 137.47C248.409 137.47 248.989 136.49 248.989 134.32C248.989 132.17 248.409 131.21 247.549 131.21C246.679 131.21 246.089 132.17 246.089 134.32C246.089 136.49 246.679 137.47 247.549 137.47ZM252.717 138.14C251.337 138.14 250.467 136.88 250.467 134.32C250.467 131.78 251.337 130.55 252.717 130.55C254.077 130.55 254.947 131.78 254.947 134.32C254.947 136.88 254.077 138.14 252.717 138.14ZM252.717 137.47C253.577 137.47 254.157 136.49 254.157 134.32C254.157 132.17 253.577 131.21 252.717 131.21C251.847 131.21 251.257 132.17 251.257 134.32C251.257 136.49 251.847 137.47 252.717 137.47ZM260.772 135.11C259.892 135.11 259.412 134.16 258.782 134.16C258.452 134.16 258.172 134.36 257.912 134.84L257.452 134.52C257.832 133.83 258.332 133.54 258.802 133.54C259.672 133.54 260.152 134.49 260.792 134.49C261.112 134.49 261.392 134.3 261.652 133.81L262.112 134.15C261.722 134.82 261.232 135.11 260.772 135.11ZM263.1 138V137.32H264.74V131.72H263.44V131.19C264.08 131.08 264.54 130.91 264.92 130.68H265.55V137.32H267.04V138H263.1ZM270.148 138.14C268.798 138.14 267.828 137.31 267.828 136.19C267.828 135.2 268.518 134.51 269.188 134.15V134.1C268.658 133.74 268.188 133.19 268.188 132.42C268.188 131.32 269.048 130.58 270.168 130.58C271.398 130.58 272.148 131.39 272.148 132.5C272.148 133.28 271.598 133.95 271.168 134.28V134.33C271.808 134.7 272.408 135.25 272.408 136.25C272.408 137.31 271.498 138.14 270.148 138.14ZM270.648 134.07C271.168 133.62 271.448 133.11 271.448 132.54C271.448 131.8 270.968 131.19 270.148 131.19C269.448 131.19 268.938 131.69 268.938 132.42C268.938 133.33 269.768 133.73 270.648 134.07ZM270.158 137.52C271.038 137.52 271.618 136.98 271.618 136.23C271.618 135.21 270.678 134.83 269.628 134.41C268.998 134.8 268.568 135.39 268.568 136.12C268.568 136.92 269.248 137.52 270.158 137.52ZM273.886 134.06C273.556 134.06 273.276 133.8 273.276 133.41C273.276 133.02 273.556 132.75 273.886 132.75C274.226 132.75 274.506 133.02 274.506 133.41C274.506 133.8 274.226 134.06 273.886 134.06ZM273.886 138.14C273.556 138.14 273.276 137.87 273.276 137.49C273.276 137.09 273.556 136.83 273.886 136.83C274.226 136.83 274.506 137.09 274.506 137.49C274.506 137.87 274.226 138.14 273.886 138.14ZM277.662 138.14C276.282 138.14 275.412 136.88 275.412 134.32C275.412 131.78 276.282 130.55 277.662 130.55C279.022 130.55 279.892 131.78 279.892 134.32C279.892 136.88 279.022 138.14 277.662 138.14ZM277.662 137.47C278.522 137.47 279.102 136.49 279.102 134.32C279.102 132.17 278.522 131.21 277.662 131.21C276.792 131.21 276.202 132.17 276.202 134.32C276.202 136.49 276.792 137.47 277.662 137.47ZM282.83 138.14C281.45 138.14 280.58 136.88 280.58 134.32C280.58 131.78 281.45 130.55 282.83 130.55C284.19 130.55 285.06 131.78 285.06 134.32C285.06 136.88 284.19 138.14 282.83 138.14ZM282.83 137.47C283.69 137.47 284.27 136.49 284.27 134.32C284.27 132.17 283.69 131.21 282.83 131.21C281.96 131.21 281.37 132.17 281.37 134.32C281.37 136.49 281.96 137.47 282.83 137.47Z" fill="#5F5F5F"/>
<path d="M66.65 37.65L84.1685 52.375C84.347 52.525 84.653 52.525 84.8315 52.375L102.35 37.65M62.06 30H106.94C108.623 30 110 31.35 110 33V64C110 67.3 107.246 70 103.88 70H65.12C61.754 70 59 67.3 59 64V33C59 31.35 60.377 30 62.06 30Z" stroke="#343434" stroke-width="2" stroke-linecap="round" stroke-linejoin="round"/>
<path d="M238.29 46.1538L252.742 60.5129C254.29 58.718 264.097 48.2051 269 62.5641C269 62.5641 268.484 70 257.903 70C250.419 70 242.677 61.0256 237.258 55.8974C232.613 51.5384 229 45.8974 229 40.7692C229 30.2564 236.226 30 236.226 30C252.742 35.641 238.29 46.1538 238.29 46.1538Z" stroke="#343434" stroke-width="2" stroke-miterlimit="10" stroke-linejoin="round"/>
<line x1="174.5" y1="18" x2="174.5" y2="150" stroke="#D9D9D9"/>
</svg>
