<svg width="274" height="40" viewBox="0 0 274 40" fill="none" xmlns="http://www.w3.org/2000/svg">
<path d="M22.75 6.62H24.09V15.91H22.75V6.62ZM19.1 7.27C20.5 7.27 21.53 8.55 21.53 10.57C21.53 12.61 20.5 13.89 19.1 13.89C17.7 13.89 16.67 12.61 16.67 10.57C16.67 8.55 17.7 7.27 19.1 7.27ZM19.1 8.48C18.41 8.48 17.94 9.21 17.94 10.57C17.94 11.95 18.41 12.69 19.1 12.69C19.79 12.69 20.25 11.95 20.25 10.57C20.25 9.21 19.79 8.48 19.1 8.48ZM29.6592 9.09H32.0392V10.15H29.6592V9.09ZM31.6992 6.64H33.0292V13.47H31.6992V6.64ZM26.8992 14.67H33.2292V15.73H26.8992V14.67ZM26.8992 12.8H28.2392V15.28H26.8992V12.8ZM25.6692 7.24H26.9892V8.65H28.7492V7.24H30.0492V12.02H25.6692V7.24ZM26.9892 9.66V10.97H28.7492V9.66H26.9892ZM34.4784 9.99H35.2484C37.1784 9.99 38.2284 9.93 39.3984 9.69L39.5384 10.72C38.3484 10.99 37.2284 11.03 35.2484 11.03H34.4784V9.99ZM34.4784 7.11H38.6184V8.15H35.7984V10.57H34.4784V7.11ZM40.1184 6.63H41.4484V11.23H40.1184V6.63ZM41.0784 8.37H42.6784V9.45H41.0784V8.37ZM35.3284 11.61H41.4484V14.17H36.6684V15.28H35.3484V13.19H40.1384V12.65H35.3284V11.61ZM35.3484 14.74H41.7184V15.79H35.3484V14.74ZM47.0633 7.34H48.1433V8.69C48.1433 10.98 47.3433 13.13 45.5933 13.99L44.7933 12.92C46.3533 12.19 47.0633 10.41 47.0633 8.69V7.34ZM47.3333 7.34H48.3933V8.69C48.3933 10.35 49.0533 12.04 50.5333 12.76L49.7333 13.82C48.0633 12.97 47.3333 10.91 47.3333 8.69V7.34ZM50.9033 6.63H52.2433V15.89H50.9033V6.63ZM51.9433 10.19H53.5833V11.3H51.9433V10.19ZM55.7425 9.73H57.0725V11.43H55.7425V9.73ZM59.0025 9.73H60.3225V11.43H59.0025V9.73ZM53.8625 11.02H62.2325V12.07H53.8625V11.02ZM58.0325 12.54C60.0325 12.54 61.2425 13.14 61.2425 14.21C61.2425 15.29 60.0325 15.89 58.0325 15.89C56.0225 15.89 54.8125 15.29 54.8125 14.21C54.8125 13.14 56.0225 12.54 58.0325 12.54ZM58.0325 13.54C56.7925 13.54 56.1625 13.75 56.1625 14.21C56.1625 14.68 56.7925 14.89 58.0325 14.89C59.2725 14.89 59.9025 14.68 59.9025 14.21C59.9025 13.75 59.2725 13.54 58.0325 13.54ZM58.0525 6.76C60.0925 6.76 61.4025 7.44 61.4025 8.55C61.4025 9.65 60.0925 10.31 58.0525 10.31C56.0025 10.31 54.7025 9.65 54.7025 8.55C54.7025 7.44 56.0025 6.76 58.0525 6.76ZM58.0525 7.78C56.7825 7.78 56.0725 8.03 56.0725 8.55C56.0725 9.06 56.7825 9.31 58.0525 9.31C59.3225 9.31 60.0325 9.06 60.0325 8.55C60.0325 8.03 59.3225 7.78 58.0525 7.78ZM69.6517 7.87H71.2617V8.96H69.6517V7.87ZM69.6517 9.82H71.2617V10.91H69.6517V9.82ZM68.7017 6.63H70.0317V12.21H68.7017V6.63ZM63.0717 10.75H63.8517C65.6717 10.75 66.7917 10.71 68.0717 10.47L68.1917 11.53C66.8917 11.78 65.7217 11.83 63.8517 11.83H63.0717V10.75ZM63.0617 7.18H67.2917V9.96H64.3917V11.4H63.0717V8.97H65.9817V8.23H63.0617V7.18ZM66.9917 12.37C68.9217 12.37 70.1217 13.03 70.1217 14.14C70.1217 15.25 68.9217 15.89 66.9917 15.89C65.0617 15.89 63.8517 15.25 63.8517 14.14C63.8517 13.03 65.0617 12.37 66.9917 12.37ZM66.9917 13.39C65.7917 13.39 65.1617 13.63 65.1617 14.14C65.1617 14.65 65.7917 14.89 66.9917 14.89C68.1917 14.89 68.8217 14.65 68.8217 14.14C68.8217 13.63 68.1917 13.39 66.9917 13.39ZM73.9766 15V13.81H75.5766V9.13H74.2266V8.22C74.9766 8.08 75.4766 7.89 75.9566 7.6H77.0466V13.81H78.4366V15H73.9766ZM81.695 15.14C80.185 15.14 79.185 13.83 79.185 11.27C79.185 8.72 80.185 7.47 81.695 7.47C83.195 7.47 84.195 8.72 84.195 11.27C84.195 13.83 83.195 15.14 81.695 15.14ZM81.695 13.99C82.335 13.99 82.805 13.35 82.805 11.27C82.805 9.2 82.335 8.6 81.695 8.6C81.055 8.6 80.575 9.2 80.575 11.27C80.575 13.35 81.055 13.99 81.695 13.99ZM85.9334 15L84.5034 7.6H86.0134L86.5934 11.21C86.7134 11.99 86.8234 12.78 86.9434 13.58H86.9834C87.1334 12.78 87.2934 11.99 87.4534 11.21L88.3034 7.6H89.5734L90.4334 11.21C90.5934 11.98 90.7334 12.78 90.9034 13.58H90.9534C91.0534 12.78 91.1734 11.99 91.2734 11.21L91.8734 7.6H93.2734L91.9034 15H90.0534L89.2334 11.34C89.1034 10.77 89.0034 10.19 88.9134 9.63H88.8734C88.7734 10.19 88.6634 10.77 88.5534 11.34L87.7434 15H85.9334ZM99.9038 6.62H101.244V15.91H99.9038V6.62ZM96.2538 7.27C97.6538 7.27 98.6838 8.55 98.6838 10.57C98.6838 12.61 97.6538 13.89 96.2538 13.89C94.8538 13.89 93.8238 12.61 93.8238 10.57C93.8238 8.55 94.8538 7.27 96.2538 7.27ZM96.2538 8.48C95.5638 8.48 95.0938 9.21 95.0938 10.57C95.0938 11.95 95.5638 12.69 96.2538 12.69C96.9438 12.69 97.4038 11.95 97.4038 10.57C97.4038 9.21 96.9438 8.48 96.2538 8.48ZM108.373 6.62H109.693V15.91H108.373V6.62ZM109.393 10.12H111.033V11.22H109.393V10.12ZM102.813 12.67H103.593C105.163 12.67 106.383 12.62 107.743 12.38L107.873 13.45C106.473 13.7 105.203 13.76 103.593 13.76H102.813V12.67ZM102.803 7.41H107.063V11H104.133V13.08H102.813V9.94H105.743V8.47H102.803V7.41ZM115.782 8.08H118.112V9.14H115.782V8.08ZM115.782 10.07H118.152V11.13H115.782V10.07ZM111.692 7.37H116.072V11.9H111.692V7.37ZM114.762 8.42H113.002V10.86H114.762V8.42ZM117.732 6.64H119.062V13.38H117.732V6.64ZM112.932 14.67H119.262V15.73H112.932V14.67ZM112.932 12.74H114.272V15.22H112.932V12.74ZM121.551 12.48C121.311 10.87 123.021 10.23 123.021 9.28C123.021 8.77 122.691 8.46 122.171 8.46C121.731 8.46 121.381 8.68 121.051 9.02L120.241 8.27C120.761 7.68 121.471 7.27 122.341 7.27C123.551 7.27 124.431 7.89 124.431 9.18C124.431 10.6 122.691 11.07 122.841 12.48H121.551ZM122.201 15.14C121.671 15.14 121.291 14.73 121.291 14.18C121.291 13.63 121.671 13.23 122.201 13.23C122.721 13.23 123.121 13.63 123.121 14.18C123.121 14.73 122.721 15.14 122.201 15.14Z" fill="#5F5F5F"/>
<path d="M17.1 33V25.74H19.11C20.54 25.74 21.45 26.27 21.45 27.61C21.45 28.9 20.54 29.58 19.11 29.58H17.47V33H17.1ZM17.47 29.26H18.98C20.31 29.26 21.05 28.73 21.05 27.61C21.05 26.48 20.31 26.07 18.98 26.07H17.47V29.26ZM21.13 33L19.01 29.47L19.43 29.43L21.56 33H21.13ZM23.7487 33.13C22.9287 33.13 22.2287 32.7 22.2287 31.7C22.2287 30.53 23.2987 29.98 25.6687 29.71C25.6987 28.86 25.4787 27.93 24.3887 27.93C23.6387 27.93 23.0087 28.3 22.6687 28.57L22.4887 28.28C22.8187 28.04 23.5487 27.6 24.4087 27.6C25.6487 27.6 26.0287 28.52 26.0287 29.59V33H25.7287L25.6787 32.3H25.6487C25.1087 32.74 24.4487 33.13 23.7487 33.13ZM23.7787 32.8C24.4087 32.8 24.9787 32.5 25.6687 31.91V30.02C23.3787 30.27 22.5987 30.8 22.5987 31.69C22.5987 32.5 23.1387 32.8 23.7787 32.8ZM27.66 33V27.73H28.02V33H27.66ZM27.85 26.4C27.64 26.4 27.49 26.25 27.49 25.99C27.49 25.77 27.64 25.61 27.85 25.61C28.05 25.61 28.21 25.77 28.21 25.99C28.21 26.25 28.05 26.4 27.85 26.4ZM31.6912 33.13C30.3512 33.13 29.3312 32.12 29.3312 30.38C29.3312 28.61 30.4312 27.6 31.7012 27.6C32.4212 27.6 32.8912 27.93 33.2412 28.26L33.0112 28.52C32.6612 28.19 32.2412 27.93 31.7012 27.93C30.5812 27.93 29.7112 28.93 29.7112 30.38C29.7112 31.82 30.5012 32.8 31.7012 32.8C32.2812 32.8 32.7912 32.52 33.1612 32.17L33.3712 32.43C32.9312 32.82 32.3712 33.13 31.6912 33.13ZM34.393 33V25.06H34.753V27.4V28.59C35.313 28.02 35.863 27.6 36.593 27.6C37.673 27.6 38.183 28.25 38.183 29.61V33H37.823V29.66C37.823 28.5 37.453 27.93 36.553 27.93C35.903 27.93 35.423 28.28 34.753 28.97V33H34.393ZM41.325 33.13C40.245 33.13 39.735 32.49 39.735 31.12V27.73H40.095V31.08C40.095 32.24 40.465 32.8 41.355 32.8C42.005 32.8 42.495 32.45 43.145 31.67V27.73H43.505V33H43.195L43.155 32.1H43.135C42.605 32.71 42.055 33.13 41.325 33.13ZM50.3338 28.46H52.2238V28.76H50.3338V28.46ZM53.7838 24.84H54.1138V33.67H53.7838V24.84ZM52.0838 25.08H52.4138V33.18H52.0838V25.08ZM48.6838 25.7C49.8038 25.7 50.5338 26.85 50.5338 28.63C50.5338 30.41 49.8038 31.57 48.6838 31.57C47.5738 31.57 46.8438 30.41 46.8438 28.63C46.8438 26.85 47.5738 25.7 48.6838 25.7ZM48.6838 25.99C47.7738 25.99 47.1638 27.12 47.1638 28.63C47.1638 30.14 47.7738 31.28 48.6838 31.28C49.6038 31.28 50.2138 30.14 50.2138 28.63C50.2138 27.12 49.6038 25.99 48.6838 25.99ZM59.943 28.08H62.533V28.37H59.943V28.08ZM58.093 25.69H58.373V27.58C58.373 29.3 57.033 31.04 55.903 31.71L55.683 31.45C56.763 30.86 58.093 29.17 58.093 27.58V25.69ZM58.143 25.69H58.423V27.58C58.423 29.11 59.793 30.71 60.883 31.27L60.683 31.55C59.513 30.9 58.143 29.23 58.143 27.58V25.69ZM62.373 24.84H62.693V33.67H62.373V24.84ZM65.6222 27.77H71.4922V28.07H65.6222V27.77ZM64.4422 29.53H72.4522V29.83H64.4422V29.53ZM65.6222 25.17H65.9422V27.93H65.6222V25.17ZM65.5922 33.13H71.5422V33.43H65.5922V33.13ZM65.5922 30.9H65.9122V33.21H65.5922V30.9ZM75.5687 33V32.67H77.2387V26.64H75.9687V26.38C76.5287 26.29 76.9687 26.14 77.2787 25.96H77.5887V32.67H79.1487V33H75.5687ZM82.0435 33.13C80.9235 33.13 80.2835 32.6 79.8435 32.14L80.0735 31.88C80.4935 32.34 81.0635 32.8 82.0635 32.8C83.0535 32.8 83.7735 32.15 83.7735 31.17C83.7735 30.16 83.0335 29.47 81.2535 29.47V29.12C82.9235 29.12 83.5035 28.4 83.5035 27.52C83.5035 26.7 82.9235 26.15 82.0235 26.15C81.3735 26.15 80.7735 26.5 80.3835 26.94L80.1535 26.69C80.6135 26.22 81.2035 25.83 82.0235 25.83C83.0635 25.83 83.8935 26.44 83.8935 27.5C83.8935 28.45 83.2935 29.01 82.5235 29.26V29.3C83.4035 29.48 84.1535 30.14 84.1535 31.15C84.1535 32.36 83.2435 33.13 82.0435 33.13ZM85.0684 34.66L84.9384 34.39C85.4084 34.12 85.7384 33.66 85.7384 33.02L85.5884 32.42L85.9584 32.89C85.8684 33.04 85.7384 33.07 85.6084 33.07C85.3784 33.07 85.1984 32.92 85.1984 32.66C85.1984 32.39 85.3984 32.25 85.6084 32.25C85.8984 32.25 86.0984 32.52 86.0984 32.95C86.0984 33.7 85.6584 34.31 85.0684 34.66ZM89.0128 33.13C87.6828 33.13 86.9528 31.79 86.9528 29.46C86.9528 27.13 87.6828 25.83 89.0128 25.83C90.3328 25.83 91.0628 27.13 91.0628 29.46C91.0628 31.79 90.3328 33.13 89.0128 33.13ZM89.0128 32.8C90.0328 32.8 90.6928 31.63 90.6928 29.46C90.6928 27.28 90.0328 26.15 89.0128 26.15C87.9828 26.15 87.3228 27.28 87.3228 29.46C87.3228 31.63 87.9828 32.8 89.0128 32.8ZM93.9077 33.13C92.5777 33.13 91.8477 31.79 91.8477 29.46C91.8477 27.13 92.5777 25.83 93.9077 25.83C95.2277 25.83 95.9577 27.13 95.9577 29.46C95.9577 31.79 95.2277 33.13 93.9077 33.13ZM93.9077 32.8C94.9277 32.8 95.5877 31.63 95.5877 29.46C95.5877 27.28 94.9277 26.15 93.9077 26.15C92.8777 26.15 92.2177 27.28 92.2177 29.46C92.2177 31.63 92.8777 32.8 93.9077 32.8ZM98.8025 33.13C97.4725 33.13 96.7425 31.79 96.7425 29.46C96.7425 27.13 97.4725 25.83 98.8025 25.83C100.122 25.83 100.852 27.13 100.852 29.46C100.852 31.79 100.122 33.13 98.8025 33.13ZM98.8025 32.8C99.8225 32.8 100.482 31.63 100.482 29.46C100.482 27.28 99.8225 26.15 98.8025 26.15C97.7725 26.15 97.1125 27.28 97.1125 29.46C97.1125 31.63 97.7725 32.8 98.8025 32.8ZM104.397 29.2H104.727V31.19H104.397V29.2ZM108.357 24.85H108.687V31.59H108.357V24.85ZM103.017 33.13H108.927V33.43H103.017V33.13ZM103.017 30.91H103.347V33.22H103.017V30.91ZM101.677 29.42L101.617 29.11C103.267 29.11 105.487 29.09 107.387 28.85L107.427 29.11C105.497 29.41 103.287 29.42 101.677 29.42ZM106.427 30.15H108.497V30.45H106.427V30.15ZM104.517 25.26C105.807 25.26 106.657 25.84 106.657 26.76C106.657 27.69 105.807 28.26 104.517 28.26C103.227 28.26 102.377 27.69 102.377 26.76C102.377 25.84 103.227 25.26 104.517 25.26ZM104.517 25.53C103.437 25.53 102.687 26.05 102.687 26.76C102.687 27.47 103.437 27.98 104.517 27.98C105.587 27.98 106.337 27.47 106.337 26.76C106.337 26.05 105.587 25.53 104.517 25.53ZM114.537 25.02C116.417 25.02 117.547 25.57 117.547 26.57C117.547 27.57 116.417 28.13 114.537 28.13C112.657 28.13 111.527 27.57 111.527 26.57C111.527 25.57 112.657 25.02 114.537 25.02ZM114.537 25.3C112.927 25.3 111.857 25.79 111.857 26.57C111.857 27.35 112.927 27.84 114.537 27.84C116.147 27.84 117.217 27.35 117.217 26.57C117.217 25.79 116.147 25.3 114.537 25.3ZM110.557 28.91H118.527V29.2H110.557V28.91ZM111.577 30.22H117.447V31.92H111.927V33.29H111.607V31.63H117.127V30.51H111.577V30.22ZM111.607 33.23H117.747V33.53H111.607V33.23ZM124.479 25.97H124.769V27.86C124.769 29.55 123.329 31.29 122.199 31.93L121.989 31.66C123.049 31.11 124.479 29.41 124.479 27.86V25.97ZM124.509 25.97H124.799V27.86C124.799 29.42 126.229 30.94 127.339 31.45L127.129 31.72C125.959 31.12 124.509 29.57 124.509 27.86V25.97ZM122.209 25.8H127.119V26.1H122.209V25.8ZM128.709 24.84H129.029V33.67H128.709V24.84ZM134.618 29.05H134.938V30.53H134.618V29.05ZM131.898 24.98H132.228V26.06H137.368V24.98H137.698V27.85H131.898V24.98ZM132.228 26.36V27.54H137.368V26.36H132.228ZM130.798 28.84H138.768V29.14H130.798V28.84ZM131.818 30.31H137.688V31.99H132.168V33.38H131.848V31.7H137.368V30.6H131.818V30.31ZM131.848 33.23H137.988V33.53H131.848V33.23ZM139.657 26.54H144.197V26.84H139.657V26.54ZM141.917 27.63C142.997 27.63 143.777 28.42 143.777 29.55C143.777 30.69 142.997 31.48 141.917 31.48C140.847 31.48 140.067 30.69 140.067 29.55C140.067 28.42 140.847 27.63 141.917 27.63ZM141.917 27.93C141.027 27.93 140.377 28.66 140.377 29.55C140.377 30.45 141.027 31.18 141.917 31.18C142.817 31.18 143.467 30.45 143.467 29.55C143.467 28.66 142.817 27.93 141.917 27.93ZM146.707 24.84H147.027V33.67H146.707V24.84ZM144.927 28.69H146.817V28.99H144.927V28.69ZM144.777 25.08H145.097V33.18H144.777V25.08ZM141.757 25.12H142.087V26.7H141.757V25.12ZM150.886 25.59C152.136 25.59 152.996 26.77 152.996 28.59C152.996 30.41 152.136 31.59 150.886 31.59C149.636 31.59 148.776 30.41 148.776 28.59C148.776 26.77 149.636 25.59 150.886 25.59ZM150.886 25.87C149.826 25.87 149.076 27.03 149.076 28.59C149.076 30.15 149.826 31.32 150.886 31.32C151.946 31.32 152.686 30.15 152.686 28.59C152.686 27.03 151.946 25.87 150.886 25.87ZM155.106 27.23H156.806V27.53H155.106V27.23ZM155.106 29.9H156.806V30.2H155.106V29.9ZM154.876 24.84H155.206V33.67H154.876V24.84ZM159.898 26.54H164.438V26.84H159.898V26.54ZM162.158 27.63C163.238 27.63 164.018 28.42 164.018 29.55C164.018 30.69 163.238 31.48 162.158 31.48C161.088 31.48 160.308 30.69 160.308 29.55C160.308 28.42 161.088 27.63 162.158 27.63ZM162.158 27.93C161.268 27.93 160.618 28.66 160.618 29.55C160.618 30.45 161.268 31.18 162.158 31.18C163.058 31.18 163.708 30.45 163.708 29.55C163.708 28.66 163.058 27.93 162.158 27.93ZM166.948 24.84H167.268V33.67H166.948V24.84ZM165.168 28.69H167.058V28.99H165.168V28.69ZM165.018 25.08H165.338V33.18H165.018V25.08ZM161.998 25.12H162.328V26.7H161.998V25.12ZM170.967 29.45H171.287V32.26H170.967V29.45ZM174.287 29.45H174.617V32.26H174.287V29.45ZM168.797 32.13H176.807V32.43H168.797V32.13ZM172.777 25.53C174.617 25.53 175.887 26.38 175.887 27.7C175.887 29.01 174.617 29.86 172.777 29.86C170.947 29.86 169.667 29.01 169.667 27.7C169.667 26.38 170.947 25.53 172.777 25.53ZM172.777 25.81C171.167 25.81 169.957 26.6 169.957 27.7C169.957 28.79 171.167 29.58 172.777 29.58C174.387 29.58 175.597 28.79 175.597 27.7C175.597 26.6 174.387 25.81 172.777 25.81ZM178.237 33.13C178.037 33.13 177.837 32.97 177.837 32.7C177.837 32.41 178.037 32.25 178.237 32.25C178.447 32.25 178.647 32.41 178.647 32.7C178.647 32.97 178.447 33.13 178.237 33.13Z" fill="#5F5F5F"/>
<path d="M1 11.4L2.8 13.2L5.8 9" stroke="#5F5F5F" stroke-width="1.5" stroke-linecap="round" stroke-linejoin="round"/>
</svg>
