<svg width="158" height="43" viewBox="0 0 158 43" fill="none" xmlns="http://www.w3.org/2000/svg">
<rect y="29" width="158" height="14" fill="#FFD74B"/>
<path d="M7.165 33L4.735 18.555H1.45V15.225H4.195L1.855 0.869998H6.94L9.145 15.225H12.25L14.725 0.869998H20.44L22.87 15.225H26.02L28.18 0.869998H33.265L30.925 15.225H33.715V18.555H30.385L27.955 33H21.655L18.955 18.555H16.165L13.51 33H7.165ZM10.585 26.385L11.665 18.555H9.64L10.585 26.385ZM24.58 26.385L25.525 18.555H23.455L24.58 26.385ZM16.57 15.225H18.55L17.56 7.845L16.57 15.225ZM61.74 6.855V6H45.81V1.5H67.14V6.99L54.585 33H49.095L61.74 6.855ZM68.832 33H67.977L66.267 31.29V28.68L67.977 26.97H70.902L72.567 28.725V33L70.137 38.895H67.167L68.832 33ZM76.2481 28.005V6.495L81.2431 1.5H94.8331L99.8281 6.495V28.005L94.8331 33H81.2431L76.2481 28.005ZM92.4031 28.5L94.6081 26.34V8.16L92.4031 6H83.6731L81.4681 8.16V26.34L83.6731 28.5H92.4031ZM104.168 26.385L120.458 11.175V7.71L118.703 6H110.963L109.208 7.71V10.635H103.988V6.135L108.623 1.5H121.043L125.678 6.135V12.705L109.523 27.6V28.545H125.858V33H104.168V26.385ZM130.056 28.005V6.495L135.051 1.5H148.641L153.636 6.495V28.005L148.641 33H135.051L130.056 28.005ZM146.211 28.5L148.416 26.34V8.16L146.211 6H137.481L135.276 8.16V26.34L137.481 28.5H146.211Z" fill="#111111"/>
</svg>
